<svg width="142" height="78" viewBox="0 0 142 78" fill="none" xmlns="http://www.w3.org/2000/svg">
<path d="M3.37451 31H11.4697V22.1477H15.9541C22.7534 22.1477 27.3106 18.1438 27.3106 11.723C27.3106 5.375 22.8699 1.18182 16.2453 1.18182H3.37451V31ZM11.4697 15.858V7.64631H14.3234C17.1625 7.64631 18.866 9.16051 18.866 11.723C18.866 14.271 17.1625 15.858 14.3234 15.858H11.4697ZM34.3029 31L36.0209 25.2926H45.8632L47.5813 31H56.3171L46.4747 1.18182H35.4094L25.5671 31H34.3029ZM37.8554 19.2358L40.8256 9.39347H41.0585L44.0287 19.2358H37.8554ZM59.189 31H73.2245C79.7035 31 83.7074 27.462 83.7074 22.5554C83.7074 18.3477 80.6062 15.5959 76.777 15.4503V15.1591C80.2277 14.4748 82.5427 11.9268 82.5427 8.63636C82.5427 4.09375 78.9319 1.18182 72.1179 1.18182H59.189V31ZM67.2841 24.5355V18.2457H71.1861C73.6467 18.2457 75.1464 19.4105 75.1464 21.5071C75.1464 23.5018 73.7923 24.5355 71.0696 24.5355H67.2841ZM67.2841 13.2372V7.52983H70.7202C72.7294 7.52983 74.2145 8.549 74.2145 10.3835C74.2145 12.218 72.7294 13.2372 70.6037 13.2372H67.2841ZM86.5757 31H106.726V24.4773H94.6709V1.18182H86.5757V31ZM137.724 16.0909C137.724 6.1321 131.318 0.774147 123.222 0.774147C115.069 0.774147 108.721 6.1321 108.721 16.0909C108.721 25.9915 115.069 31.4077 123.222 31.4077C131.318 31.4077 137.724 26.0497 137.724 16.0909ZM129.396 16.0909C129.396 21.4489 127.241 24.3608 123.222 24.3608C119.204 24.3608 117.049 21.4489 117.049 16.0909C117.049 10.733 119.204 7.82102 123.222 7.82102C127.241 7.82102 129.396 10.733 129.396 16.0909ZM18.2551 58.4858H25.8389C25.2586 52.9396 20.2252 48.9858 13.694 48.9858C6.24512 48.9858 0.199663 54.1136 0.199663 63.2358C0.199663 71.9801 5.67836 77.3778 13.748 77.3778C20.9809 77.3778 26.1627 72.9517 26.1627 65.3949V61.5625H13.9099V66.9062H18.9298C18.8623 69.3082 17.162 70.8466 13.8019 70.8466C9.91557 70.8466 7.91841 67.9858 7.91841 63.1278C7.91841 58.3374 10.0775 55.517 13.8559 55.517C16.2039 55.517 17.7963 56.5966 18.2551 58.4858ZM56.4339 63.1818C56.4339 53.9517 50.4964 48.9858 42.9935 48.9858C35.4367 48.9858 29.5532 53.9517 29.5532 63.1818C29.5532 72.358 35.4367 77.3778 42.9935 77.3778C50.4964 77.3778 56.4339 72.4119 56.4339 63.1818ZM48.7151 63.1818C48.7151 68.1477 46.718 70.8466 42.9935 70.8466C39.2691 70.8466 37.2719 68.1477 37.2719 63.1818C37.2719 58.2159 39.2691 55.517 42.9935 55.517C46.718 55.517 48.7151 58.2159 48.7151 63.1818ZM59.9053 49.3636V77H67.2462V60.9148H67.4621L73.6155 76.7841H78.0416L84.195 61.0227H84.411V77H91.7519V49.3636H82.4138L75.9905 65.017H75.6666L69.2433 49.3636H59.9053ZM95.3076 77H115.171V70.9545H102.81V66.2045H114.2V60.1591H102.81V55.4091H115.225V49.3636H95.3076V77ZM133.844 58H141.023C140.996 52.5753 136.813 48.9858 130.12 48.9858C123.548 48.9858 118.906 52.5213 118.946 57.7841C118.933 62.1023 121.929 64.5043 126.827 65.5568L129.58 66.1506C132.657 66.8253 133.709 67.5945 133.736 68.8494C133.709 70.2124 132.468 71.1705 130.066 71.1705C127.191 71.1705 125.491 69.821 125.37 67.2841H118.245C118.272 74.2202 122.968 77.3239 130.174 77.3239C137.177 77.3239 141.374 74.3011 141.401 68.8494C141.374 64.6392 138.864 61.6839 132.764 60.375L130.497 59.8892C127.88 59.3359 126.706 58.5668 126.773 57.2443C126.786 56.0298 127.799 55.1392 130.12 55.1392C132.549 55.1392 133.696 56.2053 133.844 58Z" fill="white"/>
</svg>
